<svg id="Layer_1" data-name="Layer 1" xmlns="http://www.w3.org/2000/svg" xmlns:xlink="http://www.w3.org/1999/xlink" viewBox="0 0 1125 2436"><defs><style>.cls-1{fill:none;}.cls-2{clip-path:url(#clip-path);}.cls-3{fill:#231f20;}.cls-4{fill:#414042;}.cls-5{fill:#939598;}.cls-6{fill:#d1d3d4;}.cls-7{clip-path:url(#clip-path-3);}.cls-8{fill:#886227;}.cls-9{clip-path:url(#clip-path-4);}.cls-10{fill:url(#linear-gradient);}.cls-11{clip-path:url(#clip-path-5);}.cls-12{fill:url(#linear-gradient-2);}.cls-13{fill:#fca311;}.cls-14{font-size:126.85px;}.cls-14,.cls-15{font-family:CooperBlack, Cooper Black;}.cls-15{font-size:128.08px;fill:#f7931e;}.cls-16{opacity:0.5;font-size:56.43px;}.cls-16,.cls-17{font-family:MalayalamMN, Malayalam MN;}.cls-17{font-size:91.84px;}</style><clipPath id="clip-path"><rect class="cls-1" x="397.43" y="1760" width="330.15" height="255.11"/></clipPath><clipPath id="clip-path-3"><rect class="cls-1" x="383" y="666" width="360" height="360"/></clipPath><clipPath id="clip-path-4"><polygon class="cls-1" points="698.27 760.18 698.27 986.97 742.16 1024.19 743 1023.48 743 722.24 698.27 760.18"/></clipPath><linearGradient id="linear-gradient" x1="-11.67" y1="-6.98" x2="-8.86" y2="-6.98" gradientTransform="matrix(0, -86.01, -86.01, 0, 120.05, -12.42)" gradientUnits="userSpaceOnUse"><stop offset="0" stop-color="#fca311"/><stop offset="0.27" stop-color="#f9a112"/><stop offset="0.44" stop-color="#f09c13"/><stop offset="0.59" stop-color="#e19416"/><stop offset="0.73" stop-color="#cc881a"/><stop offset="0.86" stop-color="#b0791f"/><stop offset="0.98" stop-color="#8f6626"/><stop offset="1" stop-color="#886227"/></linearGradient><clipPath id="clip-path-5"><polygon class="cls-1" points="383 666 383 973.85 427.74 935.92 427.74 703.93 383 666"/></clipPath><linearGradient id="linear-gradient-2" x1="9.05" y1="4.43" x2="11.86" y2="4.43" gradientTransform="matrix(0, 89.76, 89.76, 0, 7.95, -117.88)" gradientUnits="userSpaceOnUse"><stop offset="0" stop-color="#fca311"/><stop offset="0.24" stop-color="#f9a112"/><stop offset="0.42" stop-color="#f09c13"/><stop offset="0.58" stop-color="#df9316"/><stop offset="0.73" stop-color="#c9861b"/><stop offset="0.87" stop-color="#ac7620"/><stop offset="1" stop-color="#886227"/><stop offset="1" stop-color="#886227"/></linearGradient></defs><g class="cls-2"><g class="cls-2"><path class="cls-3" d="M646.36,1918.44h0a30.43,30.43,0,0,0,0-60.86v-12.3h0a42.73,42.73,0,1,1,0,85.45Z"/><polygon class="cls-4" points="572.8 1899.65 564.93 1904.15 562.1 1905.77 551.85 1899.85 551.41 1899.59 562.1 1893.47 562.5 1893.7 572.8 1899.65"/><polygon class="cls-5" points="582.7 1893.98 578.62 1896.32 572.8 1899.64 572.8 1899.64 562.5 1893.7 562.1 1893.47 572 1887.81 572.35 1888.01 582.7 1893.98"/><polygon class="cls-3" points="646.36 1845.28 582.71 1881.69 583 1881.86 593.4 1887.87 612.48 1876.96 646.36 1857.58 646.36 1857.58 646.36 1845.28"/><polygon class="cls-3" points="562.1 1905.77 552.27 1911.39 538.58 1919.22 478.64 1953.5 478.64 1941.21 551.4 1899.59 551.4 1899.59 551.41 1899.59 551.85 1899.85 562.1 1905.77"/><polygon class="cls-3" points="646.36 1918.44 620 1903.22 604.06 1894.02 593.66 1888.01 593.4 1887.87 591.99 1888.67 582.71 1893.99 583 1894.16 609.35 1909.37 646.36 1930.74 646.36 1930.73 646.36 1918.44"/><polygon class="cls-4" points="593.4 1887.87 591.99 1888.67 582.71 1893.99 582.7 1893.98 572.35 1888.01 572 1887.81 582.71 1881.69 583 1881.86 593.4 1887.87"/><polygon class="cls-5" points="582.71 1881.69 572 1887.81 562.5 1882.32 573.15 1876.17 573.15 1876.17 582.71 1881.69"/><path class="cls-3" d="M515.65,1866.65h0l-37-21.37a42.73,42.73,0,1,0,0,85.45l37-21.36v-12.3h0L505,1903.22l-26.36,15.22a30.43,30.43,0,1,1,0-60.86L505,1872.8l10.65,6.14Z"/><polygon class="cls-5" points="562.1 1893.47 551.41 1899.59 551.4 1899.59 551.4 1899.59 542 1894.16 552.65 1888.01 562.1 1893.47"/><polygon class="cls-3" points="515.65 1866.65 542 1881.86 531.34 1888.01 520.94 1882 515.65 1878.95 515.65 1878.94 515.65 1866.65"/><polygon class="cls-3" points="542 1894.16 515.65 1909.37 515.65 1897.07 520.94 1894.02 520.94 1894.01 531.34 1888.01 542 1894.16"/><polygon class="cls-3" points="646.36 1821.61 646.36 1833.9 590.42 1866.2 573.87 1875.76 573.15 1876.17 573.15 1876.17 562.5 1870.02 573.87 1863.46 646.36 1821.61"/><polygon class="cls-4" points="573.15 1876.17 562.5 1882.32 551.85 1876.17 557.31 1873.02 562.5 1870.02 573.15 1876.17"/><polygon class="cls-4" points="552.65 1888.01 542 1894.16 542 1894.16 531.34 1888.01 542 1881.86 552.65 1888.01"/><polygon class="cls-6" points="572 1887.81 562.1 1893.47 552.65 1888.01 558.55 1884.6 562.5 1882.32 572 1887.81"/><polygon class="cls-5" points="562.5 1882.32 558.55 1884.6 552.65 1888.01 542 1881.86 551.85 1876.17 562.5 1882.32"/></g></g><g class="cls-7"><polygon class="cls-8" points="564.53 819.92 532.9 846.75 427.73 757.58 427.73 703.93 564.53 819.92"/><polygon class="cls-8" points="698.27 933.32 698.27 986.97 564.53 873.57 596.17 846.75 698.27 933.32"/><g class="cls-9"><rect class="cls-10" x="698.27" y="722.24" width="44.73" height="301.94"/></g><g class="cls-11"><rect class="cls-12" x="383" y="666" width="44.74" height="307.85"/></g><polygon class="cls-13" points="698.27 706.53 564.53 819.92 427.74 935.92 383 973.85 383 1024.5 384.76 1026 596.17 846.75 698.27 760.18 743 722.24 743 668.6 698.27 706.53"/></g><text class="cls-14" transform="translate(330.16 1143.71) scale(1.01 1)">todo</text><text class="cls-15" transform="translate(625.57 1145.86) scale(0.89 1)">em</text><text class="cls-16" transform="translate(529.86 1715.63) scale(0.97 1)">By</text><text class="cls-17" transform="translate(432.02 2043.8) scale(0.94 1)">OMAZ</text></svg>