<svg id="Layer_1" data-name="Layer 1" xmlns="http://www.w3.org/2000/svg" xmlns:xlink="http://www.w3.org/1999/xlink" viewBox="0 0 1125 2436"><defs><style>.cls-1{fill:none;}.cls-2{clip-path:url(#clip-path);}.cls-3{fill:#886227;}.cls-4{clip-path:url(#clip-path-2);}.cls-5{fill:url(#linear-gradient);}.cls-6{clip-path:url(#clip-path-3);}.cls-7{fill:url(#linear-gradient-2);}.cls-8{fill:#fca311;}.cls-9{font-size:126.85px;}.cls-11,.cls-12,.cls-13,.cls-9{fill:#fff;}.cls-10,.cls-9{font-family:CooperBlack, Cooper Black;}.cls-10{font-size:128.08px;fill:#f7931e;}.cls-11{opacity:0.5;font-size:56.43px;}.cls-11,.cls-12{font-family:MalayalamMN, Malayalam MN;}.cls-12{font-size:91.84px;}</style><clipPath id="clip-path"><rect class="cls-1" x="383" y="666" width="360" height="360"/></clipPath><clipPath id="clip-path-2"><polygon class="cls-1" points="698.27 760.18 698.27 986.97 742.16 1024.19 743 1023.48 743 722.24 698.27 760.18"/></clipPath><linearGradient id="linear-gradient" x1="-11.67" y1="-6.98" x2="-8.86" y2="-6.98" gradientTransform="matrix(0, -86.01, -86.01, 0, 120.05, -12.42)" gradientUnits="userSpaceOnUse"><stop offset="0" stop-color="#fca311"/><stop offset="0.27" stop-color="#f9a112"/><stop offset="0.44" stop-color="#f09c13"/><stop offset="0.59" stop-color="#e19416"/><stop offset="0.73" stop-color="#cc881a"/><stop offset="0.86" stop-color="#b0791f"/><stop offset="0.98" stop-color="#8f6626"/><stop offset="1" stop-color="#886227"/></linearGradient><clipPath id="clip-path-3"><polygon class="cls-1" points="383 666 383 973.85 427.74 935.92 427.74 703.93 383 666"/></clipPath><linearGradient id="linear-gradient-2" x1="9.05" y1="4.43" x2="11.86" y2="4.43" gradientTransform="matrix(0, 89.76, 89.76, 0, 7.95, -117.88)" gradientUnits="userSpaceOnUse"><stop offset="0" stop-color="#fca311"/><stop offset="0.24" stop-color="#f9a112"/><stop offset="0.42" stop-color="#f09c13"/><stop offset="0.58" stop-color="#df9316"/><stop offset="0.73" stop-color="#c9861b"/><stop offset="0.87" stop-color="#ac7620"/><stop offset="1" stop-color="#886227"/><stop offset="1" stop-color="#886227"/></linearGradient></defs><g class="cls-2"><polygon class="cls-3" points="564.53 819.92 532.9 846.75 427.73 757.58 427.73 703.93 564.53 819.92"/><polygon class="cls-3" points="698.27 933.32 698.27 986.97 564.53 873.57 596.17 846.75 698.27 933.32"/><g class="cls-4"><rect class="cls-5" x="698.27" y="722.24" width="44.73" height="301.94"/></g><g class="cls-6"><rect class="cls-7" x="383" y="666" width="44.74" height="307.85"/></g><polygon class="cls-8" points="698.27 706.53 564.53 819.92 427.74 935.92 383 973.85 383 1024.5 384.76 1026 596.17 846.75 698.27 760.18 743 722.24 743 668.6 698.27 706.53"/></g><text class="cls-9" transform="translate(330.16 1143.71) scale(1.01 1)">todo</text><text class="cls-10" transform="translate(625.57 1145.86) scale(0.89 1)">em</text><text class="cls-11" transform="translate(529.86 1715.63) scale(0.97 1)">By</text><text class="cls-12" transform="translate(432.02 2043.8) scale(0.94 1)">OMAZ</text><path class="cls-13" d="M689.16,1917.05h0a46,46,0,0,0,0-91.92v-18.57h0a64.53,64.53,0,1,1,0,129.06Z"/><polygon class="cls-13" points="578.06 1888.66 566.18 1895.46 561.9 1897.9 546.41 1888.96 545.75 1888.58 561.9 1879.33 562.5 1879.68 578.06 1888.66"/><polygon class="cls-13" points="593.01 1880.11 586.85 1883.63 578.06 1888.66 578.06 1888.66 562.5 1879.68 561.9 1879.33 576.85 1870.78 577.38 1871.09 593.01 1880.11"/><polygon class="cls-13" points="689.16 1806.55 593.02 1861.54 593.47 1861.8 609.17 1870.87 637.99 1854.39 689.16 1825.13 689.16 1825.12 689.16 1806.55"/><polygon class="cls-13" points="561.9 1897.9 547.05 1906.39 526.38 1918.22 435.84 1970 435.84 1951.43 545.74 1888.57 545.74 1888.58 545.75 1888.58 546.41 1888.96 561.9 1897.9"/><polygon class="cls-13" points="689.16 1917.05 649.35 1894.06 625.26 1880.16 609.55 1871.09 609.17 1870.87 607.04 1872.09 593.02 1880.11 593.47 1880.37 633.26 1903.35 689.16 1935.62 689.16 1935.61 689.16 1917.05"/><polygon class="cls-13" points="609.17 1870.87 607.04 1872.09 593.02 1880.11 593.01 1880.11 577.38 1871.09 576.85 1870.78 593.02 1861.54 593.47 1861.8 609.17 1870.87"/><polygon class="cls-13" points="593.02 1861.54 576.85 1870.78 562.5 1862.49 578.58 1853.21 578.59 1853.21 593.02 1861.54"/><path class="cls-13" d="M491.74,1838.83h0l-55.9-32.27a64.53,64.53,0,1,0,0,129.06l55.9-32.27v-18.57h0l-16.08,9.28-39.82,23a46,46,0,1,1,0-91.92l39.82,23,16.08,9.28Z"/><line class="cls-13" x1="562.5" y1="1898.25" x2="561.9" y2="1897.9"/><polygon class="cls-13" points="561.9 1879.33 545.75 1888.58 545.74 1888.58 545.74 1888.57 531.54 1880.37 547.62 1871.09 561.9 1879.33"/><line class="cls-13" x1="531.54" y1="1880.37" x2="531.53" y2="1880.37"/><polygon class="cls-13" points="491.74 1838.83 531.53 1861.8 515.45 1871.09 499.74 1862.01 491.74 1857.4 491.74 1857.39 491.74 1838.83"/><polyline class="cls-13" points="578.06 1888.66 578.06 1888.66 578.59 1888.97"/><polygon class="cls-13" points="531.53 1880.37 491.74 1903.35 491.74 1884.77 499.74 1880.16 499.74 1880.15 515.45 1871.09 531.53 1880.37"/><polygon class="cls-13" points="689.16 1770.8 689.16 1789.37 604.67 1838.15 579.67 1852.58 578.59 1853.21 578.58 1853.21 562.5 1843.92 579.67 1834.01 689.16 1770.8"/><polygon class="cls-13" points="578.58 1853.21 562.5 1862.49 546.41 1853.21 554.66 1848.44 562.5 1843.92 578.58 1853.21"/><polygon class="cls-13" points="547.62 1871.09 531.54 1880.37 531.53 1880.37 515.45 1871.09 531.53 1861.8 547.62 1871.09"/><polygon class="cls-13" points="576.85 1870.78 561.9 1879.33 547.62 1871.09 556.53 1865.94 562.5 1862.49 576.85 1870.78"/><polygon class="cls-13" points="562.5 1862.49 556.53 1865.94 547.62 1871.09 531.53 1861.8 546.41 1853.21 562.5 1862.49"/></svg>